<svg xmlns="http://www.w3.org/2000/svg" viewBox="0 0 900 360" font-family="'Segoe UI',Roboto,'Helvetica Neue',Arial,sans-serif">
  <defs><marker id="a" markerWidth="9" markerHeight="9" refX="6.5" refY="3" orient="auto"><path d="M0,0 L7,3 L0,6 Z" fill="#64748b"/></marker></defs>
  <rect width="900" height="360" fill="#fff"/>
  <style>.title{font-size:18px;font-weight:600;fill:#334155}.box{fill:#f8fafc;stroke:#cbd5e1;stroke-width:1.2}.blue{fill:#eef4ff;stroke:#2563eb;stroke-width:1.2}.orange{fill:#fff7ed;stroke:#ea580c;stroke-width:1.2}.label{font-size:13px;font-weight:600;fill:#1f2937;text-anchor:middle}.small{font-size:11px;fill:#64748b;text-anchor:middle}.note{font-size:12px;fill:#475569}</style>
  <text x="32" y="42" class="title">Adaptive shuffle layout</text>
  <text x="32" y="66" class="note">Partial aggregation may fall back to ordinary RowVector, so writer and reader must handle mixed frames.</text>
  <g transform="translate(70,112)">
    <rect class="blue" x="0" y="0" width="190" height="78" rx="8"/><text class="label" x="95" y="31">Composite frame</text><text class="small" x="95" y="53">layout tag + row payload</text>
    <rect class="box" x="285" y="0" width="190" height="78" rx="8"/><text class="label" x="380" y="31">Columnar frame</text><text class="small" x="380" y="53">ordinary RowVector path</text>
    <rect class="orange" x="570" y="0" width="190" height="78" rx="8"/><text class="label" x="665" y="31">Shuffle reader</text><text class="small" x="665" y="53">parse by frame tag</text>
    <line x1="190" y1="39" x2="280" y2="39" stroke="#64748b" stroke-width="1.3" marker-end="url(#a)"/>
    <line x1="475" y1="39" x2="565" y2="39" stroke="#64748b" stroke-width="1.3" marker-end="url(#a)"/>
  </g>
  <g transform="translate(145,232)">
    <rect class="box" x="0" y="0" width="610" height="58" rx="8"/>
    <text class="label" x="305" y="24">reader output</text>
    <text class="small" x="305" y="43">a normal columnar batch consumed by final aggregation</text>
  </g>
  <text x="450" y="330" class="note" text-anchor="middle">The external interface stays compatible while the optimized path reduces reconstruction before shuffle write.</text>
</svg>
