<svg xmlns="http://www.w3.org/2000/svg" viewBox="0 0 900 360" font-family="'Segoe UI',Roboto,'Helvetica Neue',Arial,sans-serif">
  <defs><marker id="a" markerWidth="9" markerHeight="9" refX="6.5" refY="3" orient="auto"><path d="M0,0 L7,3 L0,6 Z" fill="#94a3b8"/></marker><marker id="b" markerWidth="9" markerHeight="9" refX="6.5" refY="3" orient="auto"><path d="M0,0 L7,3 L0,6 Z" fill="#2563eb"/></marker></defs>
  <rect width="900" height="360" fill="#fff"/>
  <style>.title{font-size:17px;font-weight:600;fill:#334155}.box{fill:#f8fafc;stroke:#cbd5e1;stroke-width:1.2}.red{fill:#fdf2f2;stroke:#d99a9a;stroke-width:1.2}.blue{fill:#eef4ff;stroke:#2563eb;stroke-width:1.2}.label{font-size:13px;font-weight:600;fill:#1f2937;text-anchor:middle}.small{font-size:11px;fill:#64748b;text-anchor:middle}.note{font-size:12px;fill:#475569}</style>
  <text x="32" y="42" class="title">Before fusion · Sort and Window separated by an operator boundary</text>
  <g transform="translate(80,78)">
    <rect class="box" x="0" y="0" width="160" height="64" rx="8"/><text class="label" x="80" y="25">Input</text><text class="small" x="80" y="44">columnar batches</text>
    <rect class="red" x="240" y="0" width="160" height="64" rx="8"/><text class="label" x="320" y="25">Sort</text><text class="small" x="320" y="44">materialize order</text>
    <rect class="red" x="480" y="0" width="160" height="64" rx="8"/><text class="label" x="560" y="25">Window</text><text class="small" x="560" y="44">consume sorted rows</text>
    <line x1="160" y1="32" x2="235" y2="32" stroke="#94a3b8" stroke-width="1.3" marker-end="url(#a)"/><line x1="400" y1="32" x2="475" y2="32" stroke="#94a3b8" stroke-width="1.3" marker-end="url(#a)"/>
  </g>
  <line x1="32" y1="176" x2="868" y2="176" stroke="#e5e7eb"/>
  <text x="32" y="218" class="title">After fusion · sorting is internal to Window when required</text>
  <g transform="translate(80,254)">
    <rect class="box" x="0" y="0" width="160" height="64" rx="8"/><text class="label" x="80" y="25">Input</text><text class="small" x="80" y="44">planned order checked</text>
    <rect class="blue" x="240" y="0" width="210" height="64" rx="8"/><text class="label" x="345" y="24">Window</text><text class="small" x="345" y="43">SortWindowBuild or streaming</text>
    <rect class="box" x="530" y="0" width="160" height="64" rx="8"/><text class="label" x="610" y="25">Output</text><text class="small" x="610" y="44">window results</text>
    <line x1="160" y1="32" x2="235" y2="32" stroke="#2563eb" stroke-width="1.4" marker-end="url(#b)"/><line x1="450" y1="32" x2="525" y2="32" stroke="#2563eb" stroke-width="1.4" marker-end="url(#b)"/>
  </g>
  <text x="450" y="344" class="note" text-anchor="middle">If inputsSorted() is true, Window uses the streaming path; otherwise it sorts within the Window operator.</text>
</svg>
